<mxfile host="65bd71144e">
    <diagram id="HIzjBaC0xF_liW3ieUTu" name="Page-1">
        <mxGraphModel dx="3361" dy="2818" grid="1" gridSize="10" guides="1" tooltips="1" connect="1" arrows="1" fold="1" page="1" pageScale="1" pageWidth="850" pageHeight="1100" math="0" shadow="0">
            <root>
                <mxCell id="0"/>
                <mxCell id="1" parent="0"/>
                <mxCell id="12" value="Да" style="text;html=1;strokeColor=none;fillColor=none;align=center;verticalAlign=middle;whiteSpace=wrap;rounded=0;strokeWidth=3;fontFamily=Helvetica;fontSize=20;fontColor=#000000;" parent="1" vertex="1">
                    <mxGeometry x="200" width="60" height="30" as="geometry"/>
                </mxCell>
                <mxCell id="64" value="Конец" style="ellipse;whiteSpace=wrap;html=1;strokeColor=#000000;strokeWidth=3;fontFamily=Helvetica;fontSize=20;fontColor=#000000;fillColor=#f5f5f5;gradientColor=none;" parent="1" vertex="1">
                    <mxGeometry x="-285" y="719" width="120" height="80" as="geometry"/>
                </mxCell>
                <mxCell id="89" value="Нет" style="text;html=1;strokeColor=none;fillColor=none;align=center;verticalAlign=middle;whiteSpace=wrap;rounded=0;strokeWidth=3;fontFamily=Helvetica;fontSize=20;fontColor=#000000;" parent="1" vertex="1">
                    <mxGeometry x="100" y="-100" width="60" height="30" as="geometry"/>
                </mxCell>
                <mxCell id="110" style="edgeStyle=none;rounded=0;html=1;exitX=0.5;exitY=1;exitDx=0;exitDy=0;entryX=0.5;entryY=1;entryDx=0;entryDy=0;strokeColor=#000000;strokeWidth=3;fontFamily=Helvetica;fontSize=20;fontColor=#000000;endArrow=none;endFill=0;startArrow=none;" parent="1" target="258" edge="1">
                    <mxGeometry relative="1" as="geometry">
                        <mxPoint x="210" y="220" as="targetPoint"/>
                        <mxPoint x="210" y="309.99999999999955" as="sourcePoint"/>
                    </mxGeometry>
                </mxCell>
                <mxCell id="128" style="edgeStyle=none;rounded=0;html=1;exitX=1;exitY=0.5;exitDx=0;exitDy=0;strokeColor=#000000;strokeWidth=3;fontFamily=Helvetica;fontSize=20;fontColor=#000000;endArrow=classic;endFill=1;" parent="1" source="95" edge="1">
                    <mxGeometry relative="1" as="geometry">
                        <mxPoint x="210" y="660" as="targetPoint"/>
                        <Array as="points">
                            <mxPoint x="320" y="95"/>
                            <mxPoint x="320" y="660"/>
                        </Array>
                    </mxGeometry>
                </mxCell>
                <mxCell id="95" value="Адрес верный" style="rhombus;whiteSpace=wrap;html=1;strokeColor=#000000;strokeWidth=3;fontFamily=Helvetica;fontSize=20;fontColor=#000000;fillColor=#f5f5f5;gradientColor=none;" parent="1" vertex="1">
                    <mxGeometry x="130" y="30" width="160" height="130" as="geometry"/>
                </mxCell>
                <mxCell id="109" style="edgeStyle=none;rounded=0;html=1;exitX=0.5;exitY=1;exitDx=0;exitDy=0;entryX=0.5;entryY=0;entryDx=0;entryDy=0;strokeColor=#000000;strokeWidth=3;fontFamily=Helvetica;fontSize=20;fontColor=#000000;endArrow=none;endFill=0;" parent="1" source="98" target="95" edge="1">
                    <mxGeometry relative="1" as="geometry"/>
                </mxCell>
                <mxCell id="137" style="edgeStyle=none;shape=connector;rounded=1;html=1;exitX=0;exitY=0.5;exitDx=0;exitDy=0;labelBackgroundColor=default;strokeColor=#000000;strokeWidth=3;fontFamily=Helvetica;fontSize=11;fontColor=default;endArrow=classic;endFill=1;" parent="1" edge="1">
                    <mxGeometry relative="1" as="geometry">
                        <mxPoint x="13" y="-65" as="targetPoint"/>
                        <mxPoint x="138" y="-65" as="sourcePoint"/>
                    </mxGeometry>
                </mxCell>
                <mxCell id="98" value="CRC верное" style="rhombus;whiteSpace=wrap;html=1;strokeColor=#000000;strokeWidth=3;fontFamily=Helvetica;fontSize=20;fontColor=#000000;fillColor=#f5f5f5;gradientColor=none;" parent="1" vertex="1">
                    <mxGeometry x="135" y="-120" width="150" height="110" as="geometry"/>
                </mxCell>
                <mxCell id="104" value="Да" style="text;html=1;strokeColor=none;fillColor=none;align=center;verticalAlign=middle;whiteSpace=wrap;rounded=0;strokeWidth=3;fontFamily=Helvetica;fontSize=20;fontColor=#000000;" parent="1" vertex="1">
                    <mxGeometry x="220" y="140" width="60" height="30" as="geometry"/>
                </mxCell>
                <mxCell id="127" style="edgeStyle=none;rounded=0;html=1;exitX=0.5;exitY=1;exitDx=0;exitDy=0;strokeColor=#000000;strokeWidth=3;fontFamily=Helvetica;fontSize=20;fontColor=#000000;endArrow=none;endFill=0;" parent="1" source="105" edge="1">
                    <mxGeometry relative="1" as="geometry">
                        <mxPoint x="210" y="460" as="targetPoint"/>
                        <Array as="points">
                            <mxPoint x="15" y="460"/>
                        </Array>
                    </mxGeometry>
                </mxCell>
                <mxCell id="140" style="edgeStyle=none;shape=connector;rounded=1;html=1;labelBackgroundColor=default;strokeColor=#000000;strokeWidth=3;fontFamily=Helvetica;fontSize=11;fontColor=default;endArrow=none;endFill=0;exitX=0.5;exitY=0;exitDx=0;exitDy=0;" parent="1" source="105" edge="1">
                    <mxGeometry relative="1" as="geometry">
                        <mxPoint x="15" y="-20" as="sourcePoint"/>
                        <mxPoint x="15" y="-64" as="targetPoint"/>
                    </mxGeometry>
                </mxCell>
                <mxCell id="105" value="Сообщение о ошибке" style="rounded=0;whiteSpace=wrap;html=1;fontSize=20;fillColor=#FFFFFF;strokeColor=#000000;strokeWidth=3;fontColor=#000000;" parent="1" vertex="1">
                    <mxGeometry x="-45" y="-15" width="120" height="60" as="geometry"/>
                </mxCell>
                <mxCell id="113" value="Нет" style="text;html=1;strokeColor=none;fillColor=none;align=center;verticalAlign=middle;whiteSpace=wrap;rounded=0;strokeWidth=3;fontFamily=Helvetica;fontSize=20;fontColor=#000000;" parent="1" vertex="1">
                    <mxGeometry x="270" y="60" width="60" height="30" as="geometry"/>
                </mxCell>
                <mxCell id="117" style="edgeStyle=none;rounded=0;html=1;exitX=0.5;exitY=1;exitDx=0;exitDy=0;strokeColor=#000000;strokeWidth=3;fontFamily=Helvetica;fontSize=20;fontColor=#000000;endArrow=none;endFill=0;" parent="1" target="115" edge="1">
                    <mxGeometry relative="1" as="geometry">
                        <mxPoint x="210" y="309.99999999999955" as="sourcePoint"/>
                    </mxGeometry>
                </mxCell>
                <mxCell id="124" style="edgeStyle=none;rounded=0;html=1;exitX=0.5;exitY=1;exitDx=0;exitDy=0;entryX=0.5;entryY=0;entryDx=0;entryDy=0;strokeColor=#000000;strokeWidth=3;fontFamily=Helvetica;fontSize=20;fontColor=#000000;endArrow=none;endFill=0;" parent="1" source="115" target="116" edge="1">
                    <mxGeometry relative="1" as="geometry"/>
                </mxCell>
                <mxCell id="115" value="Обработка данных" style="rounded=0;whiteSpace=wrap;html=1;fontSize=20;fillColor=#FFFFFF;strokeColor=#000000;strokeWidth=3;fontColor=#000000;" parent="1" vertex="1">
                    <mxGeometry x="150" y="270" width="120" height="60" as="geometry"/>
                </mxCell>
                <mxCell id="125" style="edgeStyle=none;rounded=0;html=1;exitX=0.5;exitY=1;exitDx=0;exitDy=0;entryX=0.5;entryY=0;entryDx=0;entryDy=0;strokeColor=#000000;strokeWidth=3;fontFamily=Helvetica;fontSize=20;fontColor=#000000;endArrow=none;endFill=0;" parent="1" source="116" target="64" edge="1">
                    <mxGeometry relative="1" as="geometry">
                        <Array as="points">
                            <mxPoint x="210" y="660"/>
                            <mxPoint x="90" y="660"/>
                            <mxPoint x="10" y="660"/>
                            <mxPoint x="-225" y="660"/>
                        </Array>
                        <mxPoint x="90.00000000000023" y="431" as="sourcePoint"/>
                    </mxGeometry>
                </mxCell>
                <mxCell id="116" value="Ответ о статусе операции" style="rounded=0;whiteSpace=wrap;html=1;fontSize=20;fillColor=#FFFFFF;strokeColor=#000000;strokeWidth=3;fontColor=#000000;" parent="1" vertex="1">
                    <mxGeometry x="150" y="351" width="120" height="80" as="geometry"/>
                </mxCell>
                <mxCell id="135" style="edgeStyle=none;shape=connector;rounded=1;html=1;exitX=0.5;exitY=1;exitDx=0;exitDy=0;entryX=0.5;entryY=0;entryDx=0;entryDy=0;labelBackgroundColor=default;strokeColor=#000000;strokeWidth=3;fontFamily=Helvetica;fontSize=11;fontColor=default;endArrow=none;endFill=0;" parent="1" source="132" target="98" edge="1">
                    <mxGeometry relative="1" as="geometry"/>
                </mxCell>
                <mxCell id="262" style="edgeStyle=none;rounded=0;html=1;exitX=0.5;exitY=0;exitDx=0;exitDy=0;strokeWidth=3;fontSize=28;endArrow=none;endFill=0;" parent="1" source="132" edge="1">
                    <mxGeometry relative="1" as="geometry">
                        <mxPoint x="10" y="-350" as="targetPoint"/>
                        <Array as="points">
                            <mxPoint x="210" y="-300"/>
                            <mxPoint x="10" y="-300"/>
                        </Array>
                    </mxGeometry>
                </mxCell>
                <mxCell id="132" value="Выбор протокола" style="rounded=0;whiteSpace=wrap;html=1;fontSize=20;fillColor=#FFFFFF;strokeColor=#000000;strokeWidth=3;fontColor=#000000;" parent="1" vertex="1">
                    <mxGeometry x="150" y="-200" width="120" height="60" as="geometry"/>
                </mxCell>
                <mxCell id="136" value="" style="edgeStyle=none;rounded=0;html=1;exitX=0.5;exitY=1;exitDx=0;exitDy=0;entryX=0.5;entryY=0;entryDx=0;entryDy=0;strokeColor=#000000;strokeWidth=3;fontFamily=Helvetica;fontSize=20;fontColor=#000000;endArrow=none;endFill=0;" parent="1" source="95" target="258" edge="1">
                    <mxGeometry relative="1" as="geometry">
                        <mxPoint x="210" y="180" as="targetPoint"/>
                        <mxPoint x="210" y="159.99999999999955" as="sourcePoint"/>
                    </mxGeometry>
                </mxCell>
                <mxCell id="162" style="edgeStyle=none;html=1;exitX=0.5;exitY=1;exitDx=0;exitDy=0;entryX=0.5;entryY=0;entryDx=0;entryDy=0;fontFamily=Helvetica;fontSize=20;fontColor=#000000;strokeColor=#000000;strokeWidth=3;endArrow=none;endFill=0;rounded=0;" parent="1" source="163" target="166" edge="1">
                    <mxGeometry relative="1" as="geometry"/>
                </mxCell>
                <mxCell id="163" value="Начало" style="ellipse;whiteSpace=wrap;html=1;fillColor=#f5f5f5;gradientColor=none;strokeColor=#000000;strokeWidth=3;fontColor=#000000;fontSize=20;" parent="1" vertex="1">
                    <mxGeometry x="-50" y="-730" width="120" height="80" as="geometry"/>
                </mxCell>
                <mxCell id="164" style="edgeStyle=none;shape=connector;rounded=0;html=1;exitX=0.5;exitY=1;exitDx=0;exitDy=0;entryX=0.5;entryY=0;entryDx=0;entryDy=0;labelBackgroundColor=default;strokeColor=#000000;strokeWidth=3;fontFamily=Helvetica;fontSize=20;fontColor=#000000;endArrow=none;endFill=0;" parent="1" source="166" edge="1">
                    <mxGeometry relative="1" as="geometry">
                        <mxPoint x="10" y="-460" as="targetPoint"/>
                    </mxGeometry>
                </mxCell>
                <mxCell id="279" style="edgeStyle=none;rounded=0;html=1;exitX=1;exitY=0.5;exitDx=0;exitDy=0;strokeWidth=3;endArrow=classic;endFill=1;" edge="1" parent="1" source="166">
                    <mxGeometry relative="1" as="geometry">
                        <mxPoint x="320" y="660" as="targetPoint"/>
                        <Array as="points">
                            <mxPoint x="370" y="-555"/>
                            <mxPoint x="370" y="660"/>
                        </Array>
                    </mxGeometry>
                </mxCell>
                <mxCell id="166" value="Пришел пакет?" style="rhombus;whiteSpace=wrap;html=1;strokeColor=#000000;strokeWidth=3;fontFamily=Helvetica;fontSize=17;fontColor=#000000;fillColor=#f5f5f5;gradientColor=none;" parent="1" vertex="1">
                    <mxGeometry x="-80" y="-620" width="180" height="130" as="geometry"/>
                </mxCell>
                <mxCell id="167" value="Да" style="text;html=1;strokeColor=none;fillColor=none;align=center;verticalAlign=middle;whiteSpace=wrap;rounded=0;strokeWidth=3;fontFamily=Helvetica;fontSize=20;fontColor=#000000;" parent="1" vertex="1">
                    <mxGeometry x="10" y="-500" width="60" height="30" as="geometry"/>
                </mxCell>
                <mxCell id="182" value="Нет" style="text;html=1;strokeColor=none;fillColor=none;align=center;verticalAlign=middle;whiteSpace=wrap;rounded=0;strokeWidth=3;fontFamily=Helvetica;fontSize=20;fontColor=#000000;" parent="1" vertex="1">
                    <mxGeometry x="90" y="-590" width="60" height="30" as="geometry"/>
                </mxCell>
                <mxCell id="183" style="edgeStyle=none;html=1;exitX=0.5;exitY=1;exitDx=0;exitDy=0;entryX=0.5;entryY=0;entryDx=0;entryDy=0;fontFamily=Helvetica;fontSize=20;fontColor=#000000;strokeColor=#000000;strokeWidth=2;endArrow=none;endFill=0;rounded=0;" parent="1" target="185" edge="1">
                    <mxGeometry relative="1" as="geometry">
                        <mxPoint x="-510" y="-270" as="sourcePoint"/>
                    </mxGeometry>
                </mxCell>
                <mxCell id="184" style="edgeStyle=none;shape=connector;rounded=0;html=1;exitX=0.5;exitY=1;exitDx=0;exitDy=0;entryX=0.5;entryY=0;entryDx=0;entryDy=0;labelBackgroundColor=default;strokeColor=#000000;strokeWidth=3;fontFamily=Helvetica;fontSize=20;fontColor=#000000;endArrow=none;endFill=0;" parent="1" source="185" edge="1">
                    <mxGeometry relative="1" as="geometry">
                        <mxPoint x="-410" y="70" as="targetPoint"/>
                        <Array as="points">
                            <mxPoint x="-510" y="50"/>
                            <mxPoint x="-410" y="50"/>
                        </Array>
                    </mxGeometry>
                </mxCell>
                <mxCell id="246" style="edgeStyle=none;rounded=0;html=1;strokeWidth=3;fontSize=28;endArrow=none;endFill=0;" parent="1" edge="1">
                    <mxGeometry relative="1" as="geometry">
                        <mxPoint x="-220" y="660" as="targetPoint"/>
                        <Array as="points">
                            <mxPoint x="-800" y="660"/>
                        </Array>
                        <mxPoint x="-800" y="-225" as="sourcePoint"/>
                    </mxGeometry>
                </mxCell>
                <mxCell id="267" style="edgeStyle=none;rounded=0;html=1;exitX=0;exitY=0.5;exitDx=0;exitDy=0;strokeWidth=3;endArrow=classic;endFill=1;" edge="1" parent="1" source="185">
                    <mxGeometry relative="1" as="geometry">
                        <mxPoint x="-802" y="-224.72413793103442" as="targetPoint"/>
                        <mxPoint x="-602" y="-225" as="sourcePoint"/>
                    </mxGeometry>
                </mxCell>
                <mxCell id="185" value="&lt;font style=&quot;font-size: 28px;&quot;&gt;Порт верный?&lt;/font&gt;" style="rhombus;whiteSpace=wrap;html=1;strokeColor=#000000;strokeWidth=3;fontFamily=Helvetica;fontSize=20;fontColor=#000000;fillColor=#f5f5f5;gradientColor=none;spacingTop=-11;" parent="1" vertex="1">
                    <mxGeometry x="-600" y="-300" width="180" height="150" as="geometry"/>
                </mxCell>
                <mxCell id="263" style="edgeStyle=none;html=1;exitX=0.5;exitY=1;exitDx=0;exitDy=0;strokeWidth=3;rounded=0;" edge="1" parent="1" source="195">
                    <mxGeometry relative="1" as="geometry">
                        <mxPoint x="-225" y="600" as="targetPoint"/>
                        <mxPoint x="-85" y="450" as="sourcePoint"/>
                        <Array as="points">
                            <mxPoint x="-80" y="600"/>
                        </Array>
                    </mxGeometry>
                </mxCell>
                <mxCell id="195" value="Сообщение о ошибке" style="rounded=0;whiteSpace=wrap;html=1;fontSize=20;fillColor=#FFFFFF;strokeColor=#000000;strokeWidth=3;fontColor=#000000;" parent="1" vertex="1">
                    <mxGeometry x="-140" y="390" width="120" height="60" as="geometry"/>
                </mxCell>
                <mxCell id="196" value="Нет" style="text;html=1;strokeColor=none;fillColor=none;align=center;verticalAlign=middle;whiteSpace=wrap;rounded=0;strokeWidth=3;fontFamily=Helvetica;fontSize=20;fontColor=#000000;" parent="1" vertex="1">
                    <mxGeometry x="-650" y="-260" width="60" height="30" as="geometry"/>
                </mxCell>
                <mxCell id="198" style="edgeStyle=none;shape=connector;rounded=0;html=1;exitX=0.5;exitY=1;exitDx=0;exitDy=0;entryX=0;entryY=0.5;entryDx=0;entryDy=0;labelBackgroundColor=default;strokeColor=#000000;strokeWidth=3;fontFamily=Helvetica;fontSize=20;fontColor=#000000;endArrow=none;endFill=0;" parent="1" source="250" target="205" edge="1">
                    <mxGeometry relative="1" as="geometry">
                        <Array as="points">
                            <mxPoint x="-410" y="360"/>
                        </Array>
                        <mxPoint x="-410" y="205" as="sourcePoint"/>
                        <mxPoint x="-370" y="360" as="targetPoint"/>
                    </mxGeometry>
                </mxCell>
                <mxCell id="200" style="edgeStyle=none;shape=connector;rounded=0;html=1;exitX=0.5;exitY=1;exitDx=0;exitDy=0;labelBackgroundColor=default;strokeColor=#000000;strokeWidth=3;fontFamily=Helvetica;fontSize=20;fontColor=#000000;endArrow=none;endFill=0;" parent="1" source="201" edge="1">
                    <mxGeometry relative="1" as="geometry">
                        <mxPoint x="-225" y="600" as="targetPoint"/>
                    </mxGeometry>
                </mxCell>
                <mxCell id="201" value="Обработка данных" style="rounded=0;whiteSpace=wrap;html=1;fontSize=20;fillColor=#FFFFFF;strokeColor=#000000;strokeWidth=3;fontColor=#000000;" parent="1" vertex="1">
                    <mxGeometry x="-285" y="460" width="120" height="60" as="geometry"/>
                </mxCell>
                <mxCell id="202" value="Да" style="text;html=1;strokeColor=none;fillColor=none;align=center;verticalAlign=middle;whiteSpace=wrap;rounded=0;strokeWidth=3;fontFamily=Helvetica;fontSize=20;fontColor=#000000;" parent="1" vertex="1">
                    <mxGeometry x="-565" y="-170" width="60" height="30" as="geometry"/>
                </mxCell>
                <mxCell id="203" style="edgeStyle=none;shape=connector;rounded=0;html=1;exitX=0.5;exitY=1;exitDx=0;exitDy=0;entryX=0.5;entryY=0;entryDx=0;entryDy=0;labelBackgroundColor=default;strokeColor=#000000;strokeWidth=3;fontFamily=Helvetica;fontSize=20;fontColor=#000000;endArrow=none;endFill=0;" parent="1" source="205" target="201" edge="1">
                    <mxGeometry relative="1" as="geometry"/>
                </mxCell>
                <mxCell id="204" style="edgeStyle=none;shape=connector;rounded=0;html=1;exitX=1;exitY=0.5;exitDx=0;exitDy=0;entryX=0.5;entryY=0;entryDx=0;entryDy=0;labelBackgroundColor=default;strokeColor=#000000;strokeWidth=3;fontFamily=Helvetica;fontSize=20;fontColor=#000000;endArrow=none;endFill=0;" parent="1" source="205" edge="1">
                    <mxGeometry relative="1" as="geometry">
                        <Array as="points">
                            <mxPoint x="-80" y="360"/>
                        </Array>
                        <mxPoint x="-80" y="390" as="targetPoint"/>
                    </mxGeometry>
                </mxCell>
                <mxCell id="205" value="Данные коректны" style="rhombus;whiteSpace=wrap;html=1;strokeColor=#000000;strokeWidth=3;fontFamily=Helvetica;fontSize=20;fontColor=#000000;fillColor=#f5f5f5;gradientColor=none;" parent="1" vertex="1">
                    <mxGeometry x="-300" y="295" width="150" height="130" as="geometry"/>
                </mxCell>
                <mxCell id="207" value="Да" style="text;html=1;strokeColor=none;fillColor=none;align=center;verticalAlign=middle;whiteSpace=wrap;rounded=0;strokeWidth=3;fontFamily=Helvetica;fontSize=20;fontColor=#000000;" parent="1" vertex="1">
                    <mxGeometry x="-225" y="410" width="60" height="30" as="geometry"/>
                </mxCell>
                <mxCell id="271" style="edgeStyle=none;rounded=0;html=1;exitX=0.5;exitY=0;exitDx=0;exitDy=0;strokeWidth=3;endArrow=none;endFill=0;" edge="1" parent="1" source="216">
                    <mxGeometry relative="1" as="geometry">
                        <mxPoint x="-630" y="-40" as="targetPoint"/>
                    </mxGeometry>
                </mxCell>
                <mxCell id="216" value="Ответ" style="rounded=0;whiteSpace=wrap;html=1;fontSize=20;fillColor=#FFFFFF;strokeColor=#000000;strokeWidth=3;fontColor=#000000;" parent="1" vertex="1">
                    <mxGeometry x="-690" width="120" height="60" as="geometry"/>
                </mxCell>
                <mxCell id="221" style="edgeStyle=none;shape=connector;rounded=0;html=1;labelBackgroundColor=default;strokeColor=#000000;strokeWidth=3;fontFamily=Helvetica;fontSize=20;fontColor=#000000;endArrow=classic;endFill=1;" parent="1" edge="1">
                    <mxGeometry relative="1" as="geometry">
                        <mxPoint x="-581" y="201" as="targetPoint"/>
                        <mxPoint x="-411" y="201" as="sourcePoint"/>
                    </mxGeometry>
                </mxCell>
                <mxCell id="222" style="edgeStyle=none;shape=connector;rounded=0;html=1;exitX=0;exitY=0.5;exitDx=0;exitDy=0;entryX=1;entryY=0.5;entryDx=0;entryDy=0;labelBackgroundColor=default;strokeColor=#000000;strokeWidth=3;fontFamily=Helvetica;fontSize=20;fontColor=#000000;endArrow=none;endFill=0;" parent="1" target="229" edge="1">
                    <mxGeometry relative="1" as="geometry">
                        <mxPoint x="-565" y="269.99999999999955" as="sourcePoint"/>
                    </mxGeometry>
                </mxCell>
                <mxCell id="226" value="Нет" style="text;html=1;strokeColor=none;fillColor=none;align=center;verticalAlign=middle;whiteSpace=wrap;rounded=0;strokeWidth=3;fontFamily=Helvetica;fontSize=20;fontColor=#000000;" parent="1" vertex="1">
                    <mxGeometry x="-160" y="325" width="60" height="30" as="geometry"/>
                </mxCell>
                <mxCell id="227" style="edgeStyle=none;shape=connector;rounded=0;html=1;exitX=0.5;exitY=1;exitDx=0;exitDy=0;entryX=0.5;entryY=0;entryDx=0;entryDy=0;labelBackgroundColor=default;strokeColor=#000000;strokeWidth=3;fontFamily=Helvetica;fontSize=20;fontColor=#000000;endArrow=none;endFill=0;" parent="1" source="229" target="231" edge="1">
                    <mxGeometry relative="1" as="geometry"/>
                </mxCell>
                <mxCell id="229" value="Ресурс&lt;br&gt;&amp;nbsp;найден" style="rhombus;whiteSpace=wrap;html=1;strokeColor=#000000;strokeWidth=3;fontFamily=Helvetica;fontSize=20;fontColor=#000000;fillColor=#f5f5f5;gradientColor=none;" parent="1" vertex="1">
                    <mxGeometry x="-655" y="255" width="150" height="130" as="geometry"/>
                </mxCell>
                <mxCell id="230" style="edgeStyle=none;shape=connector;rounded=0;html=1;exitX=0.5;exitY=1;exitDx=0;exitDy=0;labelBackgroundColor=default;strokeColor=#000000;strokeWidth=3;fontFamily=Helvetica;fontSize=20;fontColor=#000000;endArrow=none;endFill=0;" parent="1" edge="1">
                    <mxGeometry relative="1" as="geometry">
                        <mxPoint x="-210" y="600" as="targetPoint"/>
                        <Array as="points">
                            <mxPoint x="-580" y="600"/>
                            <mxPoint x="-410" y="600"/>
                        </Array>
                        <mxPoint x="-580" y="470" as="sourcePoint"/>
                    </mxGeometry>
                </mxCell>
                <mxCell id="231" value="Отправка ресурса" style="rounded=0;whiteSpace=wrap;html=1;fontSize=20;fillColor=#FFFFFF;strokeColor=#000000;strokeWidth=3;fontColor=#000000;" parent="1" vertex="1">
                    <mxGeometry x="-640" y="410" width="120" height="60" as="geometry"/>
                </mxCell>
                <mxCell id="232" style="edgeStyle=none;shape=connector;rounded=0;html=1;exitX=0.5;exitY=1;exitDx=0;exitDy=0;labelBackgroundColor=default;strokeColor=#000000;strokeWidth=3;fontFamily=Helvetica;fontSize=20;fontColor=#000000;endArrow=none;endFill=0;" parent="1" source="233" edge="1">
                    <mxGeometry relative="1" as="geometry">
                        <mxPoint x="-575" y="600" as="targetPoint"/>
                        <Array as="points">
                            <mxPoint x="-715" y="600"/>
                        </Array>
                    </mxGeometry>
                </mxCell>
                <mxCell id="233" value="Сообщение о ошибке" style="rounded=0;whiteSpace=wrap;html=1;fontSize=20;fillColor=#FFFFFF;strokeColor=#000000;strokeWidth=3;fontColor=#000000;" parent="1" vertex="1">
                    <mxGeometry x="-775" y="410" width="120" height="60" as="geometry"/>
                </mxCell>
                <mxCell id="234" value="Нет" style="text;html=1;strokeColor=none;fillColor=none;align=center;verticalAlign=middle;whiteSpace=wrap;rounded=0;strokeWidth=3;fontFamily=Helvetica;fontSize=20;fontColor=#000000;" parent="1" vertex="1">
                    <mxGeometry x="-700" y="270" width="60" height="30" as="geometry"/>
                </mxCell>
                <mxCell id="235" value="Да" style="text;html=1;strokeColor=none;fillColor=none;align=center;verticalAlign=middle;whiteSpace=wrap;rounded=0;strokeWidth=3;fontFamily=Helvetica;fontSize=20;fontColor=#000000;" parent="1" vertex="1">
                    <mxGeometry x="-584" y="370" width="60" height="30" as="geometry"/>
                </mxCell>
                <mxCell id="243" value="UDP" style="text;html=1;align=center;verticalAlign=middle;resizable=0;points=[];autosize=1;strokeColor=none;fillColor=none;fontSize=20;" parent="1" vertex="1">
                    <mxGeometry x="-600" y="-75" width="70" height="40" as="geometry"/>
                </mxCell>
                <mxCell id="244" value="TCP" style="text;html=1;align=center;verticalAlign=middle;resizable=0;points=[];autosize=1;strokeColor=none;fillColor=none;fontSize=20;" parent="1" vertex="1">
                    <mxGeometry x="-470" y="-180" width="60" height="40" as="geometry"/>
                </mxCell>
                <mxCell id="245" value="HTTP" style="text;html=1;align=center;verticalAlign=middle;resizable=0;points=[];autosize=1;strokeColor=none;fillColor=none;fontSize=20;" parent="1" vertex="1">
                    <mxGeometry x="-500" y="10" width="80" height="40" as="geometry"/>
                </mxCell>
                <mxCell id="248" value="GET" style="text;html=1;align=center;verticalAlign=middle;resizable=0;points=[];autosize=1;strokeColor=none;fillColor=none;fontSize=28;" parent="1" vertex="1">
                    <mxGeometry x="-500" y="150" width="80" height="50" as="geometry"/>
                </mxCell>
                <mxCell id="249" value="POST" style="text;html=1;align=center;verticalAlign=middle;resizable=0;points=[];autosize=1;strokeColor=none;fillColor=none;fontSize=28;" parent="1" vertex="1">
                    <mxGeometry x="-400" y="315" width="100" height="50" as="geometry"/>
                </mxCell>
                <mxCell id="250" value="Определение метода" style="rounded=0;whiteSpace=wrap;html=1;fontSize=20;fillColor=#FFFFFF;strokeColor=#000000;strokeWidth=3;fontColor=#000000;" parent="1" vertex="1">
                    <mxGeometry x="-482.5" y="70" width="145" height="60" as="geometry"/>
                </mxCell>
                <mxCell id="254" value="Выбор интерфейса" style="rounded=0;whiteSpace=wrap;html=1;fillColor=#f5f5f5;gradientColor=none;strokeColor=#000000;strokeWidth=3;fontColor=#000000;fontSize=20;" parent="1" vertex="1">
                    <mxGeometry x="-55" y="-460" width="130" height="60" as="geometry"/>
                </mxCell>
                <mxCell id="255" value="&lt;span style=&quot;font-size: 20px;&quot;&gt;RS-485&lt;br&gt;&lt;br&gt;&lt;/span&gt;" style="text;html=1;align=center;verticalAlign=middle;resizable=0;points=[];autosize=1;strokeColor=none;fillColor=none;fontSize=28;" parent="1" vertex="1">
                    <mxGeometry x="30" y="-340" width="90" height="80" as="geometry"/>
                </mxCell>
                <mxCell id="256" value="&lt;span style=&quot;font-size: 20px;&quot;&gt;Ethernet&lt;/span&gt;" style="text;html=1;align=center;verticalAlign=middle;resizable=0;points=[];autosize=1;strokeColor=none;fillColor=none;fontSize=28;" parent="1" vertex="1">
                    <mxGeometry x="-100" y="-400" width="100" height="50" as="geometry"/>
                </mxCell>
                <mxCell id="258" value="Определение команды" style="rounded=0;whiteSpace=wrap;html=1;fontSize=20;fillColor=#FFFFFF;strokeColor=#000000;strokeWidth=3;fontColor=#000000;" parent="1" vertex="1">
                    <mxGeometry x="140" y="180" width="140" height="60" as="geometry"/>
                </mxCell>
                <mxCell id="265" style="edgeStyle=none;shape=connector;rounded=0;html=1;exitX=0.5;exitY=1;exitDx=0;exitDy=0;entryX=0.5;entryY=0;entryDx=0;entryDy=0;labelBackgroundColor=default;strokeColor=#000000;strokeWidth=3;fontFamily=Helvetica;fontSize=20;fontColor=#000000;endArrow=none;endFill=0;" edge="1" parent="1">
                    <mxGeometry relative="1" as="geometry">
                        <mxPoint x="-510.28999999999996" y="-300" as="targetPoint"/>
                        <mxPoint x="-510.28999999999996" y="-330" as="sourcePoint"/>
                    </mxGeometry>
                </mxCell>
                <mxCell id="266" style="edgeStyle=none;shape=connector;rounded=0;html=1;labelBackgroundColor=default;strokeColor=#000000;strokeWidth=3;fontFamily=Helvetica;fontSize=20;fontColor=#000000;endArrow=classic;endFill=1;exitX=0.5;exitY=1;exitDx=0;exitDy=0;" edge="1" parent="1" source="254">
                    <mxGeometry relative="1" as="geometry">
                        <mxPoint x="-512" y="-330" as="targetPoint"/>
                        <mxPoint x="20" y="-390" as="sourcePoint"/>
                        <Array as="points">
                            <mxPoint x="10" y="-330"/>
                        </Array>
                    </mxGeometry>
                </mxCell>
                <mxCell id="268" style="edgeStyle=none;shape=connector;rounded=0;html=1;labelBackgroundColor=default;strokeColor=#000000;strokeWidth=3;fontFamily=Helvetica;fontSize=20;fontColor=#000000;endArrow=none;endFill=0;" edge="1" parent="1">
                    <mxGeometry relative="1" as="geometry">
                        <mxPoint x="-510" y="-130" as="targetPoint"/>
                        <mxPoint x="-290" y="-130" as="sourcePoint"/>
                    </mxGeometry>
                </mxCell>
                <mxCell id="269" style="edgeStyle=none;shape=connector;rounded=0;html=1;labelBackgroundColor=default;strokeColor=#000000;strokeWidth=3;fontFamily=Helvetica;fontSize=20;fontColor=#000000;endArrow=none;endFill=0;" edge="1" parent="1">
                    <mxGeometry relative="1" as="geometry">
                        <mxPoint x="-290" y="-245" as="targetPoint"/>
                        <mxPoint x="210" y="-245.34" as="sourcePoint"/>
                    </mxGeometry>
                </mxCell>
                <mxCell id="270" style="edgeStyle=none;shape=connector;rounded=0;html=1;labelBackgroundColor=default;strokeColor=#000000;strokeWidth=3;fontFamily=Helvetica;fontSize=20;fontColor=#000000;endArrow=classic;endFill=1;arcSize=20;spacingTop=11;spacing=9;spacingLeft=4;spacingBottom=4;" edge="1" parent="1">
                    <mxGeometry relative="1" as="geometry">
                        <mxPoint x="-290" y="-247" as="targetPoint"/>
                        <mxPoint x="-290" y="-129" as="sourcePoint"/>
                    </mxGeometry>
                </mxCell>
                <mxCell id="272" style="edgeStyle=none;rounded=0;html=1;strokeWidth=3;endArrow=classic;endFill=1;" edge="1" parent="1">
                    <mxGeometry relative="1" as="geometry">
                        <mxPoint x="-632" y="-40" as="targetPoint"/>
                        <mxPoint x="-510" y="-40" as="sourcePoint"/>
                    </mxGeometry>
                </mxCell>
                <mxCell id="273" style="edgeStyle=none;rounded=0;html=1;exitX=0.5;exitY=0;exitDx=0;exitDy=0;strokeWidth=3;endArrow=none;endFill=0;" edge="1" parent="1">
                    <mxGeometry relative="1" as="geometry">
                        <mxPoint x="-630.19" y="60" as="targetPoint"/>
                        <mxPoint x="-630.19" y="100" as="sourcePoint"/>
                    </mxGeometry>
                </mxCell>
                <mxCell id="274" style="edgeStyle=none;rounded=0;html=1;strokeWidth=3;endArrow=classic;endFill=1;" edge="1" parent="1">
                    <mxGeometry relative="1" as="geometry">
                        <mxPoint x="-800" y="100" as="targetPoint"/>
                        <mxPoint x="-630" y="100" as="sourcePoint"/>
                    </mxGeometry>
                </mxCell>
                <mxCell id="275" style="edgeStyle=none;shape=connector;rounded=0;html=1;labelBackgroundColor=default;strokeColor=#000000;strokeWidth=3;fontFamily=Helvetica;fontSize=20;fontColor=#000000;endArrow=none;endFill=0;" edge="1" parent="1" source="229">
                    <mxGeometry relative="1" as="geometry">
                        <mxPoint x="-580" y="200" as="targetPoint"/>
                        <mxPoint x="-400" y="190" as="sourcePoint"/>
                    </mxGeometry>
                </mxCell>
                <mxCell id="276" style="edgeStyle=none;shape=connector;rounded=0;html=1;labelBackgroundColor=default;strokeColor=#000000;strokeWidth=3;fontFamily=Helvetica;fontSize=20;fontColor=#000000;endArrow=none;endFill=0;exitX=0.5;exitY=0;exitDx=0;exitDy=0;" edge="1" parent="1" source="233">
                    <mxGeometry relative="1" as="geometry">
                        <mxPoint x="-715" y="320" as="targetPoint"/>
                        <mxPoint x="-715.4" y="408" as="sourcePoint"/>
                    </mxGeometry>
                </mxCell>
                <mxCell id="277" style="edgeStyle=none;shape=connector;rounded=0;html=1;labelBackgroundColor=default;strokeColor=#000000;strokeWidth=3;fontFamily=Helvetica;fontSize=20;fontColor=#000000;endArrow=classic;endFill=1;exitX=0;exitY=0.5;exitDx=0;exitDy=0;" edge="1" parent="1" source="229">
                    <mxGeometry relative="1" as="geometry">
                        <mxPoint x="-716" y="320" as="targetPoint"/>
                        <mxPoint x="-661" y="320" as="sourcePoint"/>
                    </mxGeometry>
                </mxCell>
                <mxCell id="278" style="edgeStyle=none;shape=connector;rounded=0;html=1;labelBackgroundColor=default;strokeColor=#000000;strokeWidth=3;fontFamily=Helvetica;fontSize=20;fontColor=#000000;endArrow=none;endFill=0;" edge="1" parent="1">
                    <mxGeometry relative="1" as="geometry">
                        <mxPoint x="-105" y="660" as="sourcePoint"/>
                        <mxPoint x="-225" y="600" as="targetPoint"/>
                        <Array as="points">
                            <mxPoint x="-225" y="660"/>
                        </Array>
                    </mxGeometry>
                </mxCell>
            </root>
        </mxGraphModel>
    </diagram>
</mxfile>